<svg width="30" height="26" viewBox="0 0 30 26" fill="none" xmlns="http://www.w3.org/2000/svg">
<path d="M17.0803 3.09504H20.1303V4.61504H21.6503V6.14504H23.1803V9.19504H24.7003V16.805H23.1803V19.855H21.6503V21.385H20.1303V22.905H17.0803V24.425H9.46033V25.955H20.1303V24.425H23.1803V22.905H24.7003V21.385H26.2303V19.855H27.7503V16.805H29.2703V9.19504H27.7503V6.14504H26.2303V4.61504H24.7003V3.09504H23.1803V1.57504H20.1303V0.0450439H9.46033V1.57504H17.0803V3.09504Z" fill="#000001"/>
<path d="M23.1803 9.19507H21.6503V16.8051H23.1803V9.19507Z" fill="#000001"/>
<path d="M21.6503 16.8051H20.1303V18.3351H21.6503V16.8051Z" fill="#000001"/>
<path d="M21.6503 7.66504H20.1303V9.19504H21.6503V7.66504Z" fill="#000001"/>
<path d="M20.1303 18.3351H18.6103V19.8551H20.1303V18.3351Z" fill="#000001"/>
<path d="M20.1303 6.14502H18.6103V7.66502H20.1303V6.14502Z" fill="#000001"/>
<path d="M18.6103 19.8551H17.0803V21.3851H18.6103V19.8551Z" fill="#000001"/>
<path d="M18.6103 4.61499H17.0803V6.14499H18.6103V4.61499Z" fill="#000001"/>
<path d="M17.0803 21.385H9.46033V22.905H17.0803V21.385Z" fill="#000001"/>
<path d="M17.0803 13.765H15.5603V16.805H17.0803V13.765Z" fill="#000001"/>
<path d="M17.0803 9.19507H15.5603V10.7151H17.0803V9.19507Z" fill="#000001"/>
<path d="M17.0803 3.09509H9.46033V4.61509H17.0803V3.09509Z" fill="#000001"/>
<path d="M12.5103 18.335V19.855H14.0303V18.335H15.5603V16.805H14.0303V13.765H15.5603V12.235H14.0303V9.19502H15.5603V7.66502H14.0303V6.14502H12.5103V7.66502H10.9903V9.19502H12.5103V12.235H10.9903V13.765H12.5103V16.805H10.9903V18.335H12.5103Z" fill="#000001"/>
<path d="M10.9903 15.285H9.46033V16.805H10.9903V15.285Z" fill="#000001"/>
<path d="M10.9903 9.19507H9.46033V12.2351H10.9903V9.19507Z" fill="#000001"/>
<path d="M9.46029 22.905H6.42029V24.425H9.46029V22.905Z" fill="#000001"/>
<path d="M9.46031 19.8551H7.94031V21.3851H9.46031V19.8551Z" fill="#000001"/>
<path d="M9.46031 4.61499H7.94031V6.14499H9.46031V4.61499Z" fill="#000001"/>
<path d="M9.46029 1.57507H6.42029V3.09507H9.46029V1.57507Z" fill="#000001"/>
<path d="M7.94029 18.3351H6.42029V19.8551H7.94029V18.3351Z" fill="#000001"/>
<path d="M7.94029 6.14502H6.42029V7.66502H7.94029V6.14502Z" fill="#000001"/>
<path d="M6.42032 21.385H4.89032V22.905H6.42032V21.385Z" fill="#000001"/>
<path d="M6.42032 16.8051H4.89032V18.3351H6.42032V16.8051Z" fill="#000001"/>
<path d="M6.42032 7.66504H4.89032V9.19504H6.42032V7.66504Z" fill="#000001"/>
<path d="M6.42032 3.09509H4.89032V4.61509H6.42032V3.09509Z" fill="#000001"/>
<path d="M4.8903 19.8551H3.3703V21.3851H4.8903V19.8551Z" fill="#000001"/>
<path d="M4.8903 9.19507H3.3703V16.8051H4.8903V9.19507Z" fill="#000001"/>
<path d="M4.8903 4.61499H3.3703V6.14499H4.8903V4.61499Z" fill="#000001"/>
<path d="M3.37033 16.8051H1.84033V19.8551H3.37033V16.8051Z" fill="#000001"/>
<path d="M3.37033 6.14502H1.84033V9.19502H3.37033V6.14502Z" fill="#000001"/>
<path d="M1.84031 9.19507H0.320312V16.8051H1.84031V9.19507Z" fill="#000001"/>
</svg>