<svg width="32" height="32" viewBox="0 0 32 32" fill="none" xmlns="http://www.w3.org/2000/svg">
<path d="M30.47 4.57H28.95V3.05H27.42V1.52H25.9V0H3.04V6.1H4.57V7.62H6.09V6.1H24.38V7.62H25.9V22.86H24.38V24.38H22.85V25.9H3.04V24.38H1.52V25.9H0V32H1.52V27.43H21.33V32H32V6.1H30.47V4.57ZM6.09 4.57H4.57V1.52H6.09V4.57ZM9.14 4.57H7.61V1.52H9.14V4.57ZM22.85 4.57H10.66V1.52H22.85V4.57ZM30.47 15.24H28.95V7.62H27.42V6.1H25.9V4.57H24.38V3.05H25.9V4.57H27.42V6.1H28.95V7.62H30.47V15.24Z" fill="#7a7a7a"/>
<path d="M21.33 15.24H19.8V16.76H21.33V15.24Z" fill="#00ff6a"/>
<path d="M21.33 22.86H16.76V24.38H21.33V22.86Z" fill="#eda600"/>
<path d="M19.8 12.19H18.28V13.71H19.8V12.19Z" fill="#00ff6a"/>
<path d="M19.8 32V28.95H15.23V32H16.76V30.48H18.28V32H19.8Z" fill="#7a7a7a"/>
<path d="M19.8 16.76H13.71V18.29H19.8V16.76Z" fill="#00ff6a"/>
<path d="M15.23 12.19H13.71V13.71H15.23V12.19Z" fill="#00ff6a"/>
<path d="M13.71 15.24H12.19V16.76H13.71V15.24Z" fill="#00ff6a"/>
<path d="M12.19 22.86H10.66V24.38H12.19V22.86Z" fill="#ff2b2b"/>
<path d="M24.38 21.33V9.14H9.14001V21.33H24.38ZM10.66 10.67H22.85V19.81H10.66V10.67Z" fill="#7a7a7a"/>
<path d="M9.13999 22.86H7.60999V24.38H9.13999V22.86Z" fill="#2d61ff"/>
<path d="M7.61003 7.62H6.09003V21.33H7.61003V7.62Z" fill="#7a7a7a"/>
<path d="M6.09001 21.33H4.57001V22.86H6.09001V21.33Z" fill="#7a7a7a"/>
<path d="M4.56998 22.86H3.03998V24.38H4.56998V22.86Z" fill="#7a7a7a"/>
</svg>
