<?xml version="1.0" standalone="no"?>
<!DOCTYPE svg PUBLIC "-//W3C//DTD SVG 20010904//EN"
 "http://www.w3.org/TR/2001/REC-SVG-20010904/DTD/svg10.dtd">
<svg version="1.0" xmlns="http://www.w3.org/2000/svg"
 width="700.000000pt" height="700.000000pt" viewBox="0 0 700.000000 700.000000"
 preserveAspectRatio="xMidYMid meet">
<metadata>
Created by potrace 1.14, written by Peter Selinger 2001-2017
</metadata>
<g transform="translate(0.000000,700.000000) scale(0.100000,-0.100000)"
fill="#000000" stroke="none">
<path d="M660 6335 l0 -665 170 0 170 0 0 -170 0 -170 165 0 165 0 0 -1500 0
-1500 -165 0 -165 0 0 -165 0 -165 -167 -2 -168 -3 -3 -162 -2 -163 170 0 170
0 0 165 0 165 165 0 165 0 0 165 0 165 165 0 165 0 0 1500 0 1500 -165 0 -165
0 2 168 3 167 1997 3 1998 2 2 -167 3 -168 168 -3 167 -2 0 -1665 0 -1665
-170 0 -170 0 0 -165 0 -165 -165 0 -165 0 -2 -167 -3 -168 -2162 -3 -2163 -2
-2 167 -3 168 -167 3 -168 2 0 -170 0 -170 -165 0 -165 0 0 -665 0 -665 165 0
165 0 0 500 0 500 2170 0 2170 0 0 -500 0 -500 1165 0 1165 0 0 2835 0 2835
-165 0 -165 0 0 165 0 165 -170 0 -170 0 0 165 0 165 -165 0 -165 0 0 170 0
170 -165 0 -165 0 0 165 0 165 -2505 0 -2505 0 0 -665z m670 0 l0 -335 -165 0
-165 0 0 335 0 335 165 0 165 0 0 -335z m670 0 l0 -335 -170 0 -170 0 0 328
c0 181 3 332 7 335 3 4 80 7 170 7 l163 0 0 -335z m3000 0 l0 -335 -1335 0
-1335 0 0 335 0 335 1335 0 1335 0 0 -335z m670 -170 l0 -165 165 0 165 0 0
-165 0 -165 165 0 165 0 0 -170 0 -170 170 0 170 0 0 -830 0 -830 -170 0 -170
0 0 830 0 830 -165 0 -165 0 0 170 0 170 -165 0 -165 0 0 165 0 165 -170 0
-170 0 0 165 0 165 170 0 170 0 0 -165z"/>
<path d="M2000 3665 l0 -1335 1665 0 1665 0 0 1335 0 1335 -1665 0 -1665 0 0
-1335z m3000 5 l0 -1000 -1335 0 -1335 0 0 993 c0 547 3 997 7 1000 3 4 604 7
1335 7 l1328 0 0 -1000z"/>
<path d="M1660 1835 l0 -165 170 0 170 0 0 165 0 165 -170 0 -170 0 0 -165z"/>
<path d="M2330 1835 l0 -165 170 0 170 0 0 165 0 165 -170 0 -170 0 0 -165z"/>
<path d="M3670 1835 l0 -165 495 0 495 0 0 165 0 165 -495 0 -495 0 0 -165z"/>
<path d="M3330 335 l0 -335 170 0 170 0 0 165 0 165 165 0 165 0 0 -165 0
-165 165 0 165 0 0 335 0 335 -500 0 -500 0 0 -335z"/>
</g>
</svg>
